<svg version="1.1" id="Camada_1" xmlns="http://www.w3.org/2000/svg" x="0" y="0" viewBox="0 0 2500 1044.2" style="enable-background:new 0 0 2500 1044.2" xml:space="preserve"><style>.st0{fill:#413000}</style><path class="st0" d="M1498.2 355.4c-54.8 0-95.6 26.9-95.6 91.7 0 48.8 26.9 82.7 92.7 82.7 55.8 0 93.6-32.9 93.6-84.7 0-58.8-33.9-89.7-90.7-89.7zm-109.6 457.4c-13 15.9-25.9 32.8-25.9 52.8 0 39.8 50.8 51.8 120.5 51.8 57.8 0 136.5-4 136.5-57.8 0-31.9-37.9-33.9-85.7-36.9l-145.4-9.9zm294.9-454.4c17.9 22.9 36.9 54.8 36.9 100.6 0 110.6-86.7 175.3-212.2 175.3-31.9 0-60.8-4-78.7-8.9l-32.9 52.8 97.6 6c172.4 11 274 16 274 148.4 0 114.6-100.6 179.3-274 179.3-180.3 0-249.1-45.8-249.1-124.5 0-44.9 19.9-68.7 54.8-101.6-32.9-13.9-43.8-38.8-43.8-65.7 0-21.9 10.9-41.9 28.9-60.8 17.9-18.9 37.8-37.9 61.8-59.8-48.8-23.9-85.7-75.7-85.7-149.5 0-114.6 75.7-193.2 228.1-193.2 42.9 0 68.8 3.9 91.7 10h194.3v84.7l-91.7 6.9M1950.6 177.4c-56.8 0-89.7-32.9-89.7-89.7 0-56.7 32.9-87.7 89.7-87.7 57.8 0 90.7 30.9 90.7 87.7-.1 56.8-32.9 89.7-90.7 89.7zM1822 776.1v-78.7l50.8-7c14-2 15.9-5 15.9-20V377.6c0-10.9-3-17.9-13-20.9l-53.8-18.9 11-80.7h206.3v413.5c0 16 1 17.9 15.9 20l50.8 7v78.7l-283.9-.2M2500 737.5c-42.9 20.9-105.6 39.8-162.4 39.8-118.6 0-163.4-47.8-163.4-160.4v-261c0-6 0-10-8-10h-69.7v-88.7c87.7-10 122.6-53.8 133.5-162.4h94.7v141.5c0 6.9 0 10 8 10h140.5v99.6h-148.5V584c0 58.8 14 81.7 67.7 81.7 27.9 0 56.8-7 80.7-15.9l26.9 87.7"/><path d="M1023.7 476 568.1 20.5c-26.2-26.2-68.8-26.2-95 0l-94.6 94.6 120 120c27.9-9.4 59.9-3.1 82.1 19.1 22.3 22.4 28.6 54.6 19 82.6l115.7 115.7c28-9.6 60.3-3.4 82.6 19 31.2 31.2 31.2 81.8 0 113.1-31.2 31.2-81.8 31.2-113.1 0-23.5-23.5-29.3-58-17.4-87L559.5 389.7v283.8c7.6 3.8 14.8 8.8 21.1 15.1 31.2 31.2 31.2 81.8 0 113.1-31.2 31.2-81.9 31.2-113.1 0-31.2-31.3-31.2-81.9 0-113.1 7.7-7.7 16.6-13.5 26.2-17.4V384.7c-9.5-3.9-18.5-9.7-26.2-17.4-23.7-23.6-29.4-58.4-17.2-87.4L332 161.6 19.7 473.9c-26.2 26.3-26.2 68.8 0 95l455.6 455.5c26.2 26.2 68.8 26.2 95 0L1023.8 571c26.2-26.1 26.2-68.7-.1-95" style="fill:#f05133"/></svg>