<svg version="1.1" id="svg2985" xmlns="http://www.w3.org/2000/svg" x="0" y="0" viewBox="0 0 2000 887.6" style="enable-background:new 0 0 2000 887.6" xml:space="preserve"><style>.st0{fill:#003b57}</style><path id="SQLite" class="st0" d="M760.2 437.9c-26.7 0-48.3 7.9-64.9 23.7-16.6 15.8-25 36.5-25 61.8 0 13.1 2.1 25.1 6.2 36.1s10.5 21.2 19.2 30.4c8.6 9.2 25.9 21.7 51.6 37.7 31.6 19.3 52.3 34.9 62.2 47.2 9.9 12.2 14.9 25 14.9 38.3 0 17.9-5.9 32.1-18 42.8-12.1 10.7-28.3 16.1-48.4 16.1-21.2 0-39.6-7.5-55.4-22.3-15.8-14.8-23.8-34.5-24-59.1h-9.8v89.3h9.8c3-8.5 7.2-12.8 12.6-12.8 2.6 0 8.8 1.8 18.3 5.2 23.2 8.3 42.3 12.3 57.3 12.3 25.9 0 47.9-9.1 66.3-27.5s27.6-40.6 27.6-66.5c0-20.1-6.1-38-18.1-53.5-12-15.6-35.4-33.7-70.3-54.6-30-18.1-49.6-32.8-58.6-44.2-9-11.4-13.6-24.1-13.6-38 0-15 5.5-27.1 16.4-36.1 10.9-9 25.2-13.5 43-13.5 20.1 0 36.8 6 50.1 18 13.2 12 20.9 28.7 23.1 50.1h9.8v-77.4h-9.2c-1.1 3.9-2.2 6.5-3.1 7.6-.9 1.1-2.7 1.7-5.4 1.7-3.2 0-8.9-1.3-16.9-4-17.2-5.8-33.1-8.8-47.7-8.8zm321.8 0c-32.5 0-62 7.7-88.6 23-26.7 15.3-47.8 36.5-63.4 63.6-15.6 27-23.3 55.8-23.3 86.4 0 41.1 13.5 77.7 40.6 109.9 27.1 32.1 59.7 52.1 97.4 59.8 8.6 4.5 21 16.1 37.1 34.9 18.2 21.2 33.6 36.5 46.3 45.6 12.7 9.1 26.3 15.8 40.8 20.2 14.5 4.4 30.1 6.6 47 6.6 20.5 0 38.8-3.6 54.9-10.9l-3.6-9c-9.4 3.4-19.4 5-29.9 5-14.3 0-28.7-4.7-43.2-14.2-14.4-9.5-32.5-27.6-54.1-54.2-10.1-12.8-17.1-20.8-21.1-24 41.3-8.1 75.3-28.1 101.7-60.1 26.5-32 39.7-68.6 39.7-109.5 0-48.6-17.3-89.5-51.6-122.8-34.3-33.6-76.6-50.3-126.7-50.3zm200.8 0 .5 10.5c21.6 0 33.7 6.4 36.4 19.2 1 4.6 1.5 13 1.6 25.2l-.2 233c-.2 17.4-2.7 28.5-7.4 33.3-4.8 4.8-12.8 7.8-24.5 9l-.5 10.5h215.6l5.5-52.9h-9.8c-2.8 14.4-9.3 24.7-19.5 30.6-10.3 5.9-28.5 8.8-54.8 8.8h-20.4c-23.6 0-37.3-8.5-40.9-25.7-.7-3.4-1-7-1-11.1l.9-235.6c0-17.4 2.2-29 6.7-34.7 4.6-5.7 12.9-8.9 24.9-9.7l-.5-10.5-112.6.1zm-197.4 12.7c36.6 0 66.5 14.4 89.6 43.5 23.1 29.1 34.5 69 34.5 119.5 0 47.9-11.6 86.2-34.9 115-23.3 28.8-54.3 43.2-92.8 43.2-37 0-67-14.8-90-44.6s-34.4-68.4-34.4-115.9c0-48.8 11.5-87.9 34.7-117.1 23.4-29 54.4-43.6 93.3-43.6zm495.7 50.1c-5.3 0-9.3 1.8-12.3 5.4-3.1 3.6-4 7.9-2.9 13.1 1 5.1 3.9 9.5 8.5 13.3 4.5 3.8 9.4 5.7 14.7 5.7 5.1 0 9-1.9 11.7-5.7 2.8-3.8 3.6-8.2 2.6-13.3-1.1-5.2-3.8-9.6-8.1-13.1-4.3-3.6-9.1-5.4-14.2-5.4zm142.2 35.8c-8.9 34.4-28.3 53-58 56l.3 9.8h34.7l-.7 116.4c.1 19.9.7 33.2 2.1 39.9 3.4 16.1 14 24.4 31.6 24.4 25.5 0 52.3-15.6 80.3-46.6l-8.5-7.3c-20.2 20.5-38.1 30.7-53.7 30.7-9.6 0-15.5-5.5-17.8-16.4-.6-2.6-.9-5.7-.9-9.3l.3-131.8h53l-.5-15.7h-52.3v-50.1h-9.9zm205 43.9c-29.7 0-53.8 14.4-72.5 43-18.7 28.7-24.4 60.4-17.1 95.3 4.3 20.5 12.9 36.3 26.1 47.5 13.1 11.2 29.8 16.8 49.7 16.8 18.6 0 44.4-4.7 55.3-14.2 10.9-9.5 20.9-24.8 30.2-45.8l-7.4-7.8c-14.8 27.2-44.7 40.9-67.2 40.9-31 0-49.9-17-57-50.8-.9-4.3-1.6-8.9-2.1-13.8 36.8-5.8 64.8-16.2 83.6-31.1 18.8-14.9 37.7-30.8 34.2-47.5-2.1-9.9-7.3-17.8-15.2-23.7-8-5.8-28.9-8.8-40.6-8.8zm-324.2 1.2-63.9 14.7v11.4l22.1-2.8c10.7 0 17 4.8 19 14.5.7 3.2 1.1 7.8 1.2 13.5l-.7 104.5c-.2 14.5-1.8 22.9-5 25.4-3.3 2.5-11.8 3.8-25.7 3.8l-.3 9.8h101.4l-.2-9.8c-14.1 0-23.2-1.1-27.3-3.3-4-2.2-6.8-6.1-7.9-12.1-.9-4.3-1.3-11.8-1.4-22.1l.3-147.5h-11.6zm308 19.3c6.2 0 12.1 2.4 18.1 7.1 5.9 4.7 9.5 9.9 10.7 15.5 5.8 27.8-18.8 47-74.3 57.7-1.6-20.3 1.9-38.6 10.9-55.3 8.9-16.5 20.5-25 34.6-25z"/><path id="solid-background" d="M617 38.9H67c-36.9 0-67 30.2-67 67v606.5c0 36.9 30.2 67 67 67h362.2c-4.1-180.2 57.5-530 187.8-740.5z" style="fill:#0f80cc"/><linearGradient id="gradient-background_1_" gradientUnits="userSpaceOnUse" x1="717.237" y1="665.182" x2="766.284" y2="665.182" gradientTransform="matrix(0 11.4863 11.4863 0 -7332.214 -8167.508)"><stop offset="0" style="stop-color:#97d9f6"/><stop offset=".92" style="stop-color:#0f80cc"/><stop offset="1" style="stop-color:#0f80cc"/></linearGradient><path id="gradient-background" d="M597 58.4H67c-26.2 0-47.5 21.3-47.5 47.5v562.3c120-46.1 300.2-85.8 424.8-84 25-130.9 98.6-387.4 152.7-525.8z" style="fill:url(#gradient-background_1_)"/><path id="feather" class="st0" d="M745.3 19C707.6-14.6 662-1.1 617 38.9c-6.7 5.9-13.3 12.5-20 19.6-77 81.7-148.5 233-170.7 348.5 8.7 17.5 15.4 39.9 19.9 57 1.1 4.4 2.2 8.5 3 12 2 8.3 3 13.7 3 13.7s-.7-2.6-3.5-10.8c-.5-1.6-1.1-3.3-1.9-5.3-.3-.8-.7-1.9-1.2-2.9-5-11.7-18.9-36.3-25-47.1-5.2 15.4-9.9 29.9-13.7 42.9 17.7 32.3 28.4 87.6 28.4 87.6s-.9-3.6-5.4-16.1c-3.9-11.1-23.6-45.4-28.2-53.5-7.9 29.3-11.1 49.2-8.3 54 5.5 9.3 10.8 25.5 15.4 43.3 10.4 40.2 17.7 89.1 17.7 89.1s.2 3.2.6 8.2c-1.5 33.7-.6 68.7 2 100.3 3.5 41.9 10 77.8 18.3 97.1l5.6-3.1c-12.2-37.9-17.1-87.6-15-144.9 3.3-87.6 23.4-193.2 60.7-303.3C561.8 259.1 649.1 125.8 729 62.1c-72.8 65.8-171.4 278.6-200.9 357.4-33 88.3-56.4 171.1-70.5 250.5 24.3-74.4 103-106.4 103-106.4S599.2 516 644.3 448c-27 6.2-71.4 16.7-86.3 23-21.9 9.2-27.8 12.3-27.8 12.3s71-43.2 131.9-62.8C745.9 288.5 837.2 101 745.3 19"/></svg>