<svg version="1.1" id="Camada_1" xmlns="http://www.w3.org/2000/svg" x="0" y="0" viewBox="0 0 3000 2043" style="enable-background:new 0 0 3000 2043" xml:space="preserve"><style>.st0{fill:#00758f}.st1{fill:#f29111}</style><path class="st0" d="M1223.3 1349.7c-47.1 256.4-109.3 443-186.5 558.9-60.1 89.6-126 134.4-197.7 134.4-19.1 0-42.7-5.8-70.7-17.3v-61.8c13.7 2 29.7 3.1 48.1 3.1 33.5 0 60.4-9.3 81-27.8 24.6-22.6 36.9-47.9 36.9-76 0-19.2-9.6-58.6-28.7-118.1l-127-395.5h113.7l91.2 295.8c20.5 67.2 29 114.1 25.6 140.8 49.9-133.6 84.7-279.1 104.5-436.4l109.6-.1m-502 511.5H605.6c-4.1-195.9-15.4-380.1-33.8-552.7h-1l-176.3 552.7h-88.1l-175.2-552.7h-1c-13 165.7-21.2 349.9-24.6 552.7H0c6.8-246.6 23.9-477.7 51.2-693.4h143.5l167 509.4h1l168-509.4H668c30.1 252.7 47.8 483.9 53.3 693.4"/><path class="st1" d="M2764.4 1861.1h-328.9v-693.4h110.7v608h218.2v85.4m-827.1-138.8c-28-45.2-42-117.7-42-217.7 0-174.6 53-262 158.8-262 55.4 0 96 20.9 121.9 62.7 28 45.2 42 117.1 42 215.8 0 176-53 264.1-158.8 264.1-55.3-.1-96-20.9-121.9-62.9m411.9 155.6-127.1-62.9c11.3-9.3 22.1-19.3 31.8-31 54-63.6 81-157.8 81-282.5 0-229.4-89.8-344.2-269.5-344.2-88.1 0-156.8 29.1-206 87.4-54 63.7-81 157.5-81 281.5 0 121.9 23.9 211.3 71.7 268.1 43.6 51.4 109.4 77.1 197.7 77.1 32.9 0 63.1-4.1 90.5-12.2l165.5 96.6 45.1-78m-618.6-208.9c0 58.8-21.5 107.1-64.5 144.9-43 37.6-100.8 56.5-173.1 56.5-67.6 0-133.2-21.7-196.7-64.8l29.7-59.6c54.7 27.4 104.1 41.1 148.5 41.1 41.7 0 74.2-9.3 97.8-27.7 23.5-18.5 37.6-44.3 37.6-77 0-41.2-28.6-76.4-81.2-105.9-48.4-26.6-145.4-82.4-145.4-82.4-52.5-38.4-78.9-79.6-78.9-147.5 0-56.2 19.6-101.6 58.9-136.1 39.3-34.6 90-51.9 152.2-51.9 64.2 0 122.6 17.2 175.2 51.4l-26.7 59.5c-45-19.1-89.3-28.7-133.1-28.7-35.5 0-62.9 8.5-81.9 25.7-19.2 17-31 39-31 65.7 0 41.1 29.3 76.7 83.3 106.8 49.1 26.7 148.5 83.5 148.5 83.5 54 38.3 81 79.2 81 146.6M2843.1 1861.1h18.3v-70.5h24v-14.4h-67.3v14.4h24.9l.1 70.5zm139.6 0h17.3v-85h-26l-21.2 57.9-23-57.9h-25v85h16.4v-64.7h.9l24.1 64.7h12.5l24.1-64.7-.1 64.7"/><path class="st0" d="M1844.5.1c-29.2-.4-54.7 10.6-67.9 43-22.6 54.5 33.4 108.1 52.7 135.7 14.2 19.2 32.6 41.1 42.6 62.8 5.9 14.3 7.5 29.4 13.4 44.4 13.4 36.9 25.9 77.9 43.4 112.3 9.2 17.6 19.2 36 30.9 51.9 6.7 9.3 18.4 13.4 20.9 28.5-11.7 16.7-12.6 41.9-19.2 62.9-30.1 94.7-18.4 212 24.2 281.5 13.3 20.9 45.1 67 87.8 49.4 37.6-15.1 29.2-62.8 40.1-104.7 2.5-10.1.8-16.8 5.8-23.5v1.7c11.7 23.4 23.4 46 34.3 69.5 25.9 41 71 83.7 108.6 112.2 20 15.1 35.9 41.1 61 50.3v-2.5h-1.6c-5-7.5-12.5-10.9-19.2-16.7-15-15.1-31.7-33.5-43.4-50.3-35.1-46.9-66-98.9-93.6-152.5-13.4-26-25.1-54.5-36-80.4-5-10-5-25.1-13.4-30.1-12.6 18.4-30.9 34.3-40.1 56.9-15.9 36.1-17.6 80.5-23.4 126.5-3.3.9-1.6 0-3.3 1.7-26.7-6.7-35.9-34.3-46-57.7-25.1-59.6-29.3-155.1-7.5-223.8 5.8-17.6 31-72.8 20.9-89.6-5.1-16-21.8-25.1-30.9-37.7-10.8-15.9-22.6-36-30-53.6-20.1-46.9-30.2-98.9-51.8-145.8-10-21.8-27.6-44.4-41.8-64.5-15.9-22.6-33.4-38.5-46-65.3-4.1-9.2-10-24.3-3.3-34.4 1.6-6.7 5-9.2 11.7-10.9 10.8-9.2 41.7 2.5 52.6 7.5 30.9 12.5 56.8 24.3 82.7 41.9 11.7 8.4 24.2 24.3 39.3 28.5h17.6c26.7 5.8 56.8 1.6 81.9 9.2 44.3 14.2 84.4 35.2 120.3 57.8 109.4 69.5 199.7 168.5 260.6 286.6 10.1 19.2 14.3 36.8 23.4 56.9 17.6 41.1 39.3 83 56.8 123.2 17.5 39.4 34.3 79.6 59.4 112.3 12.5 17.6 62.7 26.8 85.2 36 16.7 7.5 42.6 14.2 57.7 23.4 28.4 17.6 56.8 37.7 83.5 57 13.3 10.1 55.1 31 57.6 47.8-66.9-1.7-118.7 5-162.1 23.5-12.5 5-32.6 5-34.3 20.9 6.7 6.7 7.5 17.6 13.4 26.8 10 16.8 27.5 39.3 43.4 51.1 17.6 13.4 35.1 26.8 53.5 38.5 32.6 20.2 69.3 31.9 101.1 52 18.4 11.7 36.8 26.8 55.2 39.4 9.2 6.7 15 17.6 26.7 21.8v-2.6c-5.9-7.5-7.5-18.4-13.3-26.8-8.3-8.3-16.7-15.9-25.1-24.2-24.2-32.7-54.4-61.1-86.9-84.6-26.8-18.5-85.3-43.6-96.1-74.5l-1.7-1.7c18.4-1.7 40.2-8.4 57.7-13.5 28.4-7.5 54.3-5.8 83.5-13.3 13.4-3.4 26.8-7.6 40.2-11.7v-7.6c-15.1-15-25.9-35.2-41.8-49.4-42.6-36.9-89.4-72.8-137.9-103.1-25.9-16.8-59.4-27.6-87-41.9-10-5-26.7-7.5-32.5-15.9-15.1-18.4-23.4-42.7-34.3-64.5-24.2-46-47.6-97.1-68.5-145.8-15-32.7-24.2-65.3-42.6-95.5-86.1-142.5-179.7-228.7-323.4-313.4-30.9-17.6-67.7-25.1-106.9-34.4-20.9-.9-41.8-2.5-62.7-3.3-13.4-5.9-26.8-21.8-38.5-29.4-29.6-19-88.8-51.6-137.6-52.2zm206.2 207.1c-14.2 0-24.2 1.7-34.3 4.2v1.7h1.6c6.7 13.4 18.5 22.7 26.7 34.4 6.7 13.4 12.6 26.8 19.3 40.2.8-.8 1.6-1.7 1.6-1.7 11.8-8.3 17.6-21.7 17.6-41.9-5.1-5.9-5.8-11.7-10.1-17.6-4.8-8.4-15.7-12.6-22.4-19.3z"/></svg>