<?xml version="1.0" standalone="no"?>
<!DOCTYPE svg PUBLIC "-//W3C//DTD SVG 20010904//EN"
 "http://www.w3.org/TR/2001/REC-SVG-20010904/DTD/svg10.dtd">
<svg version="1.0" xmlns="http://www.w3.org/2000/svg"
 width="929.000000pt" height="929.000000pt" viewBox="0 0 929.000000 929.000000"
 preserveAspectRatio="xMidYMid meet">
<metadata>
Created by potrace 1.14, written by Peter Selinger 2001-2017
</metadata>
<g transform="translate(0.000000,929.000000) scale(0.100000,-0.100000)"
fill="#000000" stroke="none">
<path d="M4388 9285 c-2 -1 -46 -6 -98 -9 -111 -8 -182 -14 -229 -21 -18 -3
-59 -8 -90 -11 -31 -3 -67 -7 -81 -9 -14 -3 -54 -10 -90 -16 -36 -5 -107 -19
-159 -30 -51 -12 -101 -22 -110 -24 -99 -20 -488 -141 -575 -179 -17 -7 -78
-33 -136 -57 -337 -141 -720 -370 -1030 -618 -199 -158 -497 -443 -645 -615
-27 -32 -60 -68 -72 -81 -11 -13 -52 -64 -89 -112 -38 -48 -74 -94 -81 -101
-7 -7 -29 -36 -48 -65 -20 -29 -54 -77 -76 -107 -22 -30 -43 -62 -47 -70 -4
-8 -25 -42 -47 -75 -175 -267 -361 -664 -463 -985 -34 -108 -89 -303 -96 -340
-2 -14 -12 -58 -20 -97 -9 -40 -18 -87 -21 -105 -3 -18 -8 -40 -10 -48 -2 -8
-7 -40 -10 -70 -4 -30 -8 -57 -10 -60 -3 -6 -11 -67 -20 -153 -4 -32 -8 -66
-10 -77 -18 -96 -26 -696 -11 -885 15 -189 27 -283 71 -545 43 -254 157 -630
275 -907 311 -729 880 -1437 1565 -1944 564 -417 1236 -702 1905 -809 36 -5
75 -12 88 -15 13 -2 50 -7 83 -10 33 -4 68 -8 77 -10 107 -20 870 -30 1027
-12 111 12 158 17 190 22 17 2 53 7 80 10 187 25 481 94 765 180 38 11 188 67
217 80 17 8 34 15 38 15 3 0 25 8 48 19 23 10 71 31 107 47 84 37 371 183 390
198 8 7 38 25 65 41 142 80 419 277 588 418 410 343 778 767 1054 1213 125
202 250 454 333 669 23 61 46 119 51 130 23 56 100 308 124 413 42 176 86 405
99 522 3 25 9 72 13 105 10 78 10 1011 0 1095 -7 61 -19 145 -32 235 -16 106
-59 313 -91 433 -146 553 -381 1040 -727 1512 -39 52 -73 97 -76 100 -4 3 -26
30 -49 60 -156 198 -416 465 -647 665 -379 328 -812 593 -1267 776 -223 89
-594 197 -803 233 -49 9 -100 18 -111 20 -43 9 -100 17 -144 21 -25 3 -61 7
-80 10 -19 2 -66 7 -105 10 -38 3 -88 8 -110 11 -42 6 -631 14 -637 9z"/>
</g>
</svg>
